<?xml version="1.0" encoding="UTF-8" standalone="no"?>
<!DOCTYPE svg PUBLIC "-//W3C//DTD SVG 1.1//EN" "http://www.w3.org/Graphics/SVG/1.1/DTD/svg11.dtd">
<svg version="1.1" xmlns="http://www.w3.org/2000/svg" xmlns:xlink="http://www.w3.org/1999/xlink" preserveAspectRatio="xMidYMid meet" viewBox="0 0 640 640" width="640" height="640"><defs><path d="M561.23 393.54L561.38 393.55L561.52 393.57L561.66 393.6L561.8 393.63L561.93 393.66L562.07 393.71L562.2 393.75L562.33 393.8L562.45 393.86L562.58 393.92L562.7 393.99L562.82 394.06L562.93 394.13L563.04 394.21L563.15 394.29L563.26 394.38L563.36 394.47L563.46 394.57L563.55 394.66L563.64 394.77L563.73 394.87L563.81 394.98L563.89 395.09L563.97 395.21L564.04 395.33L564.1 395.45L564.16 395.57L564.22 395.7L564.27 395.83L564.32 395.96L564.36 396.09L564.4 396.23L564.43 396.36L564.45 396.5L564.47 396.65L564.49 396.79L564.5 396.94L564.5 397.08L564.5 616.04L564.5 616.19L564.49 616.33L564.47 616.48L564.45 616.62L564.43 616.76L564.4 616.9L564.36 617.03L564.32 617.17L564.27 617.3L564.22 617.43L564.16 617.55L564.1 617.68L564.04 617.8L563.97 617.92L563.89 618.03L563.81 618.14L563.73 618.25L563.64 618.36L563.55 618.46L563.46 618.56L563.36 618.65L563.26 618.74L563.15 618.83L563.04 618.91L562.93 618.99L562.82 619.07L562.7 619.14L562.58 619.2L562.45 619.26L562.33 619.32L562.2 619.37L562.07 619.42L561.93 619.46L561.8 619.5L561.66 619.53L561.52 619.55L561.38 619.57L561.23 619.59L561.09 619.6L560.94 619.6L543.55 619.6L543.41 619.6L543.26 619.59L543.12 619.57L542.98 619.55L542.84 619.53L542.7 619.5L542.56 619.46L542.43 619.42L542.3 619.37L542.17 619.32L542.04 619.26L541.92 619.2L541.8 619.14L541.68 619.07L541.56 618.99L541.45 618.91L541.34 618.83L541.24 618.74L541.13 618.65L541.04 618.56L540.94 618.46L540.85 618.36L540.76 618.25L540.68 618.14L540.6 618.03L540.53 617.92L540.46 617.8L540.39 617.68L540.33 617.55L540.27 617.43L540.22 617.3L540.18 617.17L540.13 617.03L540.1 616.9L540.07 616.76L540.04 616.62L540.02 616.48L540.01 616.33L540 616.19L539.99 616.04L539.99 397.08L540 396.94L540.01 396.79L540.02 396.65L540.04 396.5L540.07 396.36L540.1 396.23L540.13 396.09L540.18 395.96L540.22 395.83L540.27 395.7L540.33 395.57L540.39 395.45L540.46 395.33L540.53 395.21L540.6 395.09L540.68 394.98L540.76 394.87L540.85 394.77L540.94 394.66L541.04 394.57L541.13 394.47L541.24 394.38L541.34 394.29L541.45 394.21L541.56 394.13L541.68 394.06L541.8 393.99L541.92 393.92L542.04 393.86L542.17 393.8L542.3 393.75L542.43 393.71L542.56 393.66L542.7 393.63L542.84 393.6L542.98 393.57L543.12 393.55L543.26 393.54L543.41 393.53L543.55 393.52L560.94 393.52L561.09 393.53L561.23 393.54ZM303.37 526.75L303.42 526.75L303.48 526.76L303.53 526.77L303.59 526.78L303.64 526.8L303.7 526.82L303.75 526.83L303.8 526.85L303.85 526.88L303.9 526.9L303.95 526.93L303.99 526.95L304.04 526.98L304.08 527.02L304.12 527.05L304.17 527.08L304.21 527.12L304.25 527.16L304.28 527.19L304.32 527.24L304.35 527.28L304.39 527.32L304.42 527.36L304.45 527.41L304.48 527.46L304.5 527.5L304.53 527.55L304.55 527.6L304.57 527.65L304.59 527.71L304.6 527.76L304.62 527.81L304.63 527.87L304.64 527.92L304.65 527.98L304.65 528.04L304.66 528.09L304.66 528.15L304.66 614.77L304.66 614.83L304.65 614.89L304.65 614.94L304.64 615L304.63 615.06L304.62 615.11L304.6 615.16L304.59 615.22L304.57 615.27L304.55 615.32L304.53 615.37L304.5 615.42L304.48 615.47L304.45 615.51L304.42 615.56L304.39 615.6L304.35 615.65L304.32 615.69L304.28 615.73L304.25 615.77L304.21 615.81L304.17 615.84L304.12 615.88L304.08 615.91L304.04 615.94L303.99 615.97L303.95 616L303.9 616.02L303.85 616.05L303.8 616.07L303.75 616.09L303.7 616.11L303.64 616.12L303.59 616.14L303.53 616.15L303.48 616.16L303.42 616.17L303.37 616.18L303.31 616.18L303.25 616.18L281.56 616.18L281.5 616.18L281.44 616.18L281.39 616.17L281.33 616.16L281.28 616.15L281.22 616.14L281.17 616.12L281.12 616.11L281.06 616.09L281.01 616.07L280.96 616.05L280.91 616.02L280.87 616L280.82 615.97L280.77 615.94L280.73 615.91L280.69 615.88L280.64 615.84L280.6 615.81L280.56 615.77L280.53 615.73L280.49 615.69L280.46 615.65L280.42 615.6L280.39 615.56L280.36 615.51L280.34 615.47L280.31 615.42L280.29 615.37L280.26 615.32L280.24 615.27L280.22 615.22L280.21 615.16L280.19 615.11L280.18 615.06L280.17 615L280.16 614.94L280.16 614.89L280.15 614.83L280.15 614.77L280.15 528.15L280.15 528.09L280.16 528.04L280.16 527.98L280.17 527.92L280.18 527.87L280.19 527.81L280.21 527.76L280.22 527.71L280.24 527.65L280.26 527.6L280.29 527.55L280.31 527.5L280.34 527.46L280.36 527.41L280.39 527.36L280.42 527.32L280.46 527.28L280.49 527.24L280.53 527.19L280.56 527.16L280.6 527.12L280.64 527.08L280.69 527.05L280.73 527.02L280.77 526.98L280.82 526.95L280.87 526.93L280.91 526.9L280.96 526.88L281.01 526.85L281.06 526.83L281.12 526.82L281.17 526.8L281.22 526.78L281.28 526.77L281.33 526.76L281.39 526.75L281.44 526.75L281.5 526.74L281.56 526.74L303.25 526.74L303.31 526.74L303.37 526.75ZM474.8 421.32L474.92 421.33L475.05 421.35L475.17 421.37L475.29 421.39L475.4 421.43L475.52 421.46L475.63 421.5L475.74 421.55L475.85 421.6L475.96 421.65L476.06 421.7L476.16 421.77L476.26 421.83L476.36 421.9L476.45 421.97L476.55 422.04L476.63 422.12L476.72 422.2L476.8 422.29L476.88 422.38L476.95 422.47L477.02 422.56L477.09 422.66L477.16 422.76L477.22 422.86L477.27 422.96L477.33 423.07L477.38 423.18L477.42 423.29L477.46 423.4L477.5 423.52L477.53 423.64L477.55 423.75L477.58 423.88L477.59 424L477.61 424.12L477.61 424.25L477.62 424.37L477.62 613.11L477.61 613.24L477.61 613.36L477.59 613.49L477.58 613.61L477.55 613.73L477.53 613.85L477.5 613.97L477.46 614.08L477.42 614.2L477.38 614.31L477.33 614.42L477.27 614.52L477.22 614.63L477.16 614.73L477.09 614.83L477.02 614.92L476.95 615.02L476.88 615.11L476.8 615.2L476.72 615.28L476.63 615.36L476.55 615.44L476.45 615.52L476.36 615.59L476.26 615.66L476.16 615.72L476.06 615.78L475.96 615.84L475.85 615.89L475.74 615.94L475.63 615.98L475.52 616.02L475.4 616.06L475.29 616.09L475.17 616.12L475.05 616.14L474.92 616.16L474.8 616.17L474.68 616.18L474.55 616.18L456.18 616.18L456.05 616.18L455.93 616.17L455.8 616.16L455.68 616.14L455.56 616.12L455.44 616.09L455.32 616.06L455.21 616.02L455.09 615.98L454.98 615.94L454.87 615.89L454.77 615.84L454.66 615.78L454.56 615.72L454.46 615.66L454.37 615.59L454.27 615.52L454.18 615.44L454.09 615.36L454.01 615.28L453.93 615.2L453.85 615.11L453.77 615.02L453.7 614.92L453.63 614.83L453.57 614.73L453.51 614.63L453.45 614.52L453.4 614.42L453.35 614.31L453.31 614.2L453.27 614.08L453.23 613.97L453.2 613.85L453.17 613.73L453.15 613.61L453.13 613.49L453.12 613.36L453.11 613.24L453.11 613.11L453.11 424.37L453.11 424.25L453.12 424.12L453.13 424L453.15 423.88L453.17 423.75L453.2 423.64L453.23 423.52L453.27 423.4L453.31 423.29L453.35 423.18L453.4 423.07L453.45 422.96L453.51 422.86L453.57 422.76L453.63 422.66L453.7 422.56L453.77 422.47L453.85 422.38L453.93 422.29L454.01 422.2L454.09 422.12L454.18 422.04L454.27 421.97L454.37 421.9L454.46 421.83L454.56 421.77L454.66 421.7L454.77 421.65L454.87 421.6L454.98 421.55L455.09 421.5L455.21 421.46L455.32 421.43L455.44 421.39L455.56 421.37L455.68 421.35L455.8 421.33L455.93 421.32L456.05 421.31L456.18 421.31L474.55 421.31L474.68 421.31L474.8 421.32ZM158.79 444.68L158.9 444.69L159.01 444.71L159.11 444.73L159.22 444.75L159.32 444.78L159.42 444.81L159.52 444.85L159.62 444.89L159.72 444.93L159.81 444.97L159.9 445.02L159.99 445.08L160.08 445.13L160.16 445.19L160.25 445.26L160.33 445.32L160.4 445.39L160.48 445.46L160.55 445.54L160.62 445.62L160.69 445.7L160.75 445.78L160.81 445.86L160.87 445.95L160.92 446.04L160.97 446.13L161.02 446.23L161.06 446.32L161.1 446.42L161.13 446.52L161.16 446.62L161.19 446.72L161.22 446.83L161.23 446.93L161.25 447.04L161.26 447.15L161.27 447.26L161.27 447.37L161.27 613.48L161.27 613.59L161.26 613.7L161.25 613.81L161.23 613.92L161.22 614.02L161.19 614.13L161.16 614.23L161.13 614.33L161.1 614.43L161.06 614.53L161.02 614.63L160.97 614.72L160.92 614.81L160.87 614.9L160.81 614.99L160.75 615.07L160.69 615.16L160.62 615.24L160.55 615.31L160.48 615.39L160.4 615.46L160.33 615.53L160.25 615.6L160.16 615.66L160.08 615.72L159.99 615.78L159.9 615.83L159.81 615.88L159.72 615.93L159.62 615.97L159.52 616.01L159.42 616.04L159.32 616.07L159.22 616.1L159.11 616.13L159.01 616.14L158.9 616.16L158.79 616.17L158.68 616.18L158.57 616.18L139.46 616.18L139.35 616.18L139.24 616.17L139.13 616.16L139.03 616.14L138.92 616.13L138.81 616.1L138.71 616.07L138.61 616.04L138.51 616.01L138.41 615.97L138.32 615.93L138.22 615.88L138.13 615.83L138.04 615.78L137.95 615.72L137.87 615.66L137.79 615.6L137.71 615.53L137.63 615.46L137.55 615.39L137.48 615.31L137.41 615.24L137.35 615.16L137.29 615.07L137.23 614.99L137.17 614.9L137.12 614.81L137.07 614.72L137.02 614.63L136.98 614.53L136.94 614.43L136.9 614.33L136.87 614.23L136.84 614.13L136.82 614.02L136.8 613.92L136.78 613.81L136.77 613.7L136.77 613.59L136.76 613.48L136.76 447.37L136.77 447.26L136.77 447.15L136.78 447.04L136.8 446.93L136.82 446.83L136.84 446.72L136.87 446.62L136.9 446.52L136.94 446.42L136.98 446.32L137.02 446.23L137.07 446.13L137.12 446.04L137.17 445.95L137.23 445.86L137.29 445.78L137.35 445.7L137.41 445.62L137.48 445.54L137.55 445.46L137.63 445.39L137.71 445.32L137.79 445.26L137.87 445.19L137.95 445.13L138.04 445.08L138.13 445.02L138.22 444.97L138.32 444.93L138.41 444.89L138.51 444.85L138.61 444.81L138.71 444.78L138.81 444.75L138.92 444.73L139.03 444.71L139.13 444.69L139.24 444.68L139.35 444.68L139.46 444.67L158.57 444.67L158.68 444.68L158.79 444.68ZM222.92 334.69L223.1 334.71L223.28 334.73L223.45 334.77L223.62 334.8L223.79 334.85L223.96 334.9L224.12 334.96L224.28 335.02L224.44 335.09L224.6 335.17L224.75 335.25L224.89 335.34L225.04 335.43L225.18 335.53L225.31 335.63L225.44 335.74L225.57 335.86L225.69 335.97L225.81 336.1L225.92 336.22L226.03 336.35L226.13 336.49L226.23 336.63L226.33 336.77L226.41 336.92L226.5 337.07L226.57 337.22L226.64 337.38L226.71 337.54L226.76 337.71L226.82 337.87L226.86 338.04L226.9 338.21L226.93 338.39L226.96 338.56L226.98 338.74L226.99 338.92L226.99 339.11L226.99 611.75L226.99 611.93L226.98 612.11L226.96 612.29L226.93 612.47L226.9 612.64L226.86 612.81L226.82 612.98L226.76 613.15L226.71 613.31L226.64 613.47L226.57 613.63L226.5 613.79L226.41 613.94L226.33 614.08L226.23 614.23L226.13 614.37L226.03 614.5L225.92 614.63L225.81 614.76L225.69 614.88L225.57 615L225.44 615.11L225.31 615.22L225.18 615.33L225.04 615.42L224.89 615.52L224.75 615.6L224.6 615.69L224.44 615.76L224.28 615.83L224.12 615.9L223.96 615.95L223.79 616.01L223.62 616.05L223.45 616.09L223.28 616.12L223.1 616.15L222.92 616.17L222.74 616.18L222.56 616.18L206.91 616.18L206.73 616.18L206.55 616.17L206.37 616.15L206.2 616.12L206.02 616.09L205.85 616.05L205.68 616.01L205.51 615.95L205.35 615.9L205.19 615.83L205.03 615.76L204.88 615.69L204.73 615.6L204.58 615.52L204.44 615.42L204.3 615.33L204.16 615.22L204.03 615.11L203.9 615L203.78 614.88L203.66 614.76L203.55 614.63L203.44 614.5L203.34 614.37L203.24 614.23L203.15 614.08L203.06 613.94L202.98 613.79L202.9 613.63L202.83 613.47L202.77 613.31L202.71 613.15L202.66 612.98L202.61 612.81L202.57 612.64L202.54 612.47L202.52 612.29L202.5 612.11L202.49 611.93L202.48 611.75L202.48 339.11L202.49 338.92L202.5 338.74L202.52 338.56L202.54 338.39L202.57 338.21L202.61 338.04L202.66 337.87L202.71 337.71L202.77 337.54L202.83 337.38L202.9 337.22L202.98 337.07L203.06 336.92L203.15 336.77L203.24 336.63L203.34 336.49L203.44 336.35L203.55 336.22L203.66 336.1L203.78 335.97L203.9 335.86L204.03 335.74L204.16 335.63L204.3 335.53L204.44 335.43L204.58 335.34L204.73 335.25L204.88 335.17L205.03 335.09L205.19 335.02L205.35 334.96L205.51 334.9L205.68 334.85L205.85 334.8L206.02 334.77L206.2 334.73L206.37 334.71L206.55 334.69L206.73 334.68L206.91 334.68L222.56 334.68L222.74 334.68L222.92 334.69ZM96.57 378.57L96.72 378.59L96.87 378.61L97.02 378.64L97.16 378.67L97.31 378.71L97.45 378.75L97.59 378.8L97.72 378.85L97.85 378.91L97.98 378.98L98.11 379.05L98.24 379.12L98.36 379.2L98.47 379.28L98.59 379.37L98.7 379.46L98.81 379.56L98.91 379.66L99.01 379.76L99.11 379.87L99.2 379.98L99.28 380.09L99.37 380.21L99.45 380.33L99.52 380.45L99.59 380.58L99.65 380.71L99.71 380.84L99.77 380.98L99.82 381.12L99.86 381.26L99.9 381.4L99.93 381.55L99.96 381.69L99.98 381.84L99.99 381.99L100 382.15L100.01 382.3L100.01 612.44L100 612.59L99.99 612.75L99.98 612.9L99.96 613.05L99.93 613.19L99.9 613.34L99.86 613.48L99.82 613.62L99.77 613.76L99.71 613.9L99.65 614.03L99.59 614.16L99.52 614.29L99.45 614.41L99.37 614.53L99.28 614.65L99.2 614.76L99.11 614.87L99.01 614.98L98.91 615.08L98.81 615.18L98.7 615.28L98.59 615.37L98.47 615.46L98.36 615.54L98.24 615.62L98.11 615.69L97.98 615.76L97.85 615.83L97.72 615.89L97.59 615.94L97.45 615.99L97.31 616.03L97.16 616.07L97.02 616.1L96.87 616.13L96.72 616.15L96.57 616.17L96.42 616.18L96.27 616.18L79.24 616.18L79.09 616.18L78.93 616.17L78.78 616.15L78.63 616.13L78.49 616.1L78.34 616.07L78.2 616.03L78.06 615.99L77.92 615.94L77.78 615.89L77.65 615.83L77.52 615.76L77.39 615.69L77.27 615.62L77.15 615.54L77.03 615.46L76.92 615.37L76.81 615.28L76.7 615.18L76.6 615.08L76.5 614.98L76.4 614.87L76.31 614.76L76.22 614.65L76.14 614.53L76.06 614.41L75.99 614.29L75.92 614.16L75.85 614.03L75.79 613.9L75.74 613.76L75.69 613.62L75.65 613.48L75.61 613.34L75.58 613.19L75.55 613.05L75.53 612.9L75.51 612.75L75.5 612.59L75.5 612.44L75.5 382.3L75.5 382.15L75.51 381.99L75.53 381.84L75.55 381.69L75.58 381.55L75.61 381.4L75.65 381.26L75.69 381.12L75.74 380.98L75.79 380.84L75.85 380.71L75.92 380.58L75.99 380.45L76.06 380.33L76.14 380.21L76.22 380.09L76.31 379.98L76.4 379.87L76.5 379.76L76.6 379.66L76.7 379.56L76.81 379.46L76.92 379.37L77.03 379.28L77.15 379.2L77.27 379.12L77.39 379.05L77.52 378.98L77.65 378.91L77.78 378.85L77.92 378.8L78.06 378.75L78.2 378.71L78.34 378.67L78.49 378.64L78.63 378.61L78.78 378.59L78.93 378.57L79.09 378.56L79.24 378.56L96.27 378.56L96.42 378.56L96.57 378.57ZM387.3 378.57L387.45 378.59L387.6 378.61L387.75 378.64L387.89 378.67L388.03 378.71L388.17 378.75L388.31 378.8L388.45 378.85L388.58 378.91L388.71 378.98L388.84 379.05L388.96 379.12L389.08 379.2L389.2 379.28L389.32 379.37L389.43 379.46L389.53 379.56L389.64 379.66L389.74 379.76L389.83 379.87L389.92 379.98L390.01 380.09L390.09 380.21L390.17 380.33L390.25 380.45L390.31 380.58L390.38 380.71L390.44 380.84L390.49 380.98L390.54 381.12L390.59 381.26L390.62 381.4L390.66 381.55L390.68 381.69L390.7 381.84L390.72 381.99L390.73 382.15L390.73 382.3L390.73 612.44L390.73 612.59L390.72 612.75L390.7 612.9L390.68 613.05L390.66 613.19L390.62 613.34L390.59 613.48L390.54 613.62L390.49 613.76L390.44 613.9L390.38 614.03L390.31 614.16L390.25 614.29L390.17 614.41L390.09 614.53L390.01 614.65L389.92 614.76L389.83 614.87L389.74 614.98L389.64 615.08L389.53 615.18L389.43 615.28L389.32 615.37L389.2 615.46L389.08 615.54L388.96 615.62L388.84 615.69L388.71 615.76L388.58 615.83L388.45 615.89L388.31 615.94L388.17 615.99L388.03 616.03L387.89 616.07L387.75 616.1L387.6 616.13L387.45 616.15L387.3 616.17L387.15 616.18L386.99 616.18L369.97 616.18L369.81 616.18L369.66 616.17L369.51 616.15L369.36 616.13L369.21 616.1L369.07 616.07L368.92 616.03L368.78 615.99L368.65 615.94L368.51 615.89L368.38 615.83L368.25 615.76L368.12 615.69L368 615.62L367.88 615.54L367.76 615.46L367.64 615.37L367.53 615.28L367.43 615.18L367.32 615.08L367.22 614.98L367.13 614.87L367.04 614.76L366.95 614.65L366.87 614.53L366.79 614.41L366.71 614.29L366.64 614.16L366.58 614.03L366.52 613.9L366.47 613.76L366.42 613.62L366.37 613.48L366.34 613.34L366.3 613.19L366.28 613.05L366.25 612.9L366.24 612.75L366.23 612.59L366.23 612.44L366.23 382.3L366.23 382.15L366.24 381.99L366.25 381.84L366.28 381.69L366.3 381.55L366.34 381.4L366.37 381.26L366.42 381.12L366.47 380.98L366.52 380.84L366.58 380.71L366.64 380.58L366.71 380.45L366.79 380.33L366.87 380.21L366.95 380.09L367.04 379.98L367.13 379.87L367.22 379.76L367.32 379.66L367.43 379.56L367.53 379.46L367.64 379.37L367.76 379.28L367.88 379.2L368 379.12L368.12 379.05L368.25 378.98L368.38 378.91L368.51 378.85L368.65 378.8L368.78 378.75L368.92 378.71L369.07 378.67L369.21 378.64L369.36 378.61L369.51 378.59L369.66 378.57L369.81 378.56L369.97 378.56L386.99 378.56L387.15 378.56L387.3 378.57Z" id="cBdsajU9A"></path></defs><g><g><g><use xlink:href="#cBdsajU9A" opacity="1" fill="#57ebf4" fill-opacity="1"></use></g></g></g></svg>